<?xml version="1.0" encoding="UTF-8"?>
<!--!
Font Awesome Pro 6.2.0 by @fontawesome - https://fontawesome.com
License - https://fontawesome.com/license (Commercial License)
Copyright 2022 Fonticons, Inc.
-->
<svg xmlns="http://www.w3.org/2000/svg" style="display: none;">
  <symbol id="flag" viewBox="0 0 512 512">
    <path d="M476.3 0c-6.365 0-13.01 1.35-19.34 4.233c-45.69 20.86-79.56 27.94-107.8 27.94c-59.96 0-94.81-31.86-163.9-31.87c-34.63 0-77.87 8.003-137.2 32.05V24C48 10.75 37.25 0 24 0S0 10.75 0 24v464C0 501.3 10.75 512 24 512s24-10.75 24-24v-104c53.59-23.86 96.02-31.81 132.8-31.81c73.63 0 124.9 31.78 198.6 31.78c31.91 0 68.02-5.971 111.1-23.09C504.1 355.9 512 344.4 512 332.1V30.73C512 11.1 495.3 0 476.3 0zM464 319.8c-30.31 10.82-58.08 16.1-84.6 16.1c-30.8 0-58.31-7-87.44-14.41c-32.01-8.141-68.29-17.37-111.1-17.37c-42.35 0-85.99 9.09-132.8 27.73V84.14l18.03-7.301c47.39-19.2 86.38-28.54 119.2-28.54c28.24 .0039 49.12 6.711 73.31 14.48c25.38 8.148 54.13 17.39 90.58 17.39c35.43 0 72.24-8.496 114.9-26.61V319.8z"></path>
  </symbol>
  <symbol id="circle" viewBox="0 0 512 512">
    <path d="M512 256C512 397.4 397.4 512 256 512C114.6 512 0 397.4 0 256C0 114.6 114.6 0 256 0C397.4 0 512 114.6 512 256zM256 48C141.1 48 48 141.1 48 256C48 370.9 141.1 464 256 464C370.9 464 464 370.9 464 256C464 141.1 370.9 48 256 48z"></path>
  </symbol>
  <symbol id="notdef" viewBox="0 0 384 512">
    <path d="M336 0h-288C21.49 0 0 21.49 0 48v416C0 490.5 21.49 512 48 512h288c26.51 0 48-21.49 48-48v-416C384 21.49 362.5 0 336 0zM336 90.16V421.8L221.2 256L336 90.16zM192 213.8L77.19 48h229.6L192 213.8zM162.8 256L48 421.8V90.16L162.8 256zM192 298.2L306.8 464H77.19L192 298.2z"></path>
  </symbol>
</svg>
