<?xml version="1.0" encoding="UTF-8"?>
<!--!
Font Awesome Pro 6.2.0 by @fontawesome - https://fontawesome.com
License - https://fontawesome.com/license (Commercial License)
Copyright 2022 Fonticons, Inc.
-->
<svg xmlns="http://www.w3.org/2000/svg" style="display: none;">
  <symbol id="flag" viewBox="0 0 512 512">
    <path d="M64 32V480c0 17.7-14.3 32-32 32s-32-14.3-32-32V32C0 14.3 14.3 0 32 0S64 14.3 64 32zm40.8 302.8c-3 .9-6 1.7-8.8 2.6V13.5C121.5 6.4 153 0 184 0c36.5 0 68.3 9.1 95.6 16.9l1.3 .4C309.4 25.4 333.3 32 360 32c26.8 0 52.9-6.8 73-14.1c9.9-3.6 17.9-7.2 23.4-9.8c2.7-1.3 4.8-2.4 6.2-3.1c.7-.4 1.1-.6 1.4-.8l.2-.1c9.9-5.6 22.1-5.6 31.9 .2S512 20.6 512 32V288c0 12.1-6.8 23.2-17.7 28.6L480 288c14.3 28.6 14.3 28.6 14.3 28.6l0 0 0 0-.1 0-.2 .1-.7 .4c-.6 .3-1.5 .7-2.5 1.2c-2.2 1-5.2 2.4-9 4c-7.7 3.3-18.5 7.6-31.5 11.9C424.5 342.9 388.8 352 352 352c-37 0-65.2-9.4-89-17.3l-1-.3c-24-8-43.7-14.4-70-14.4c-27.5 0-60.1 7-87.2 14.8z"></path>
  </symbol>
  <symbol id="stopwatch" viewBox="0 0 448 512">
    <path d="M176 0c-17.7 0-32 14.3-32 32s14.3 32 32 32h16V98.4C92.3 113.8 16 200 16 304c0 114.9 93.1 208 208 208s208-93.1 208-208c0-41.8-12.3-80.7-33.5-113.2l24.1-24.1c12.5-12.5 12.5-32.8 0-45.3s-32.8-12.5-45.3 0L355.7 143c-28.1-23-62.2-38.8-99.7-44.6V64h16c17.7 0 32-14.3 32-32s-14.3-32-32-32H224 176zm72 192V320c0 13.3-10.7 24-24 24s-24-10.7-24-24V192c0-13.3 10.7-24 24-24s24 10.7 24 24z"></path>
  </symbol>
  <symbol id="star" viewBox="0 0 576 512">
    <path d="M316.9 18C311.6 7 300.4 0 288.1 0s-23.4 7-28.8 18L195 150.3 51.4 171.5c-12 1.8-22 10.2-25.7 21.7s-.7 24.2 7.9 32.7L137.8 329 113.2 474.7c-2 12 3 24.2 12.9 31.3s23 8 33.8 2.3l128.3-68.5 128.3 68.5c10.8 5.7 23.9 4.9 33.8-2.3s14.9-19.3 12.9-31.3L438.5 329 542.7 225.9c8.6-8.5 11.7-21.2 7.9-32.7s-13.7-19.9-25.7-21.7L381.2 150.3 316.9 18z"></path>
  </symbol>
  <symbol id="circle" viewBox="0 0 512 512">
    <path d="M256 512c141.4 0 256-114.6 256-256S397.4 0 256 0S0 114.6 0 256S114.6 512 256 512z"></path>
  </symbol>
  <symbol id="minus" viewBox="0 0 448 512">
    <path d="M432 256c0 17.7-14.3 32-32 32L48 288c-17.7 0-32-14.3-32-32s14.3-32 32-32l352 0c17.7 0 32 14.3 32 32z"></path>
  </symbol>
  <symbol id="plus" viewBox="0 0 448 512">
    <path d="M256 80c0-17.7-14.3-32-32-32s-32 14.3-32 32V224H48c-17.7 0-32 14.3-32 32s14.3 32 32 32H192V432c0 17.7 14.3 32 32 32s32-14.3 32-32V288H400c17.7 0 32-14.3 32-32s-14.3-32-32-32H256V80z"></path>
  </symbol>
  <symbol id="plus-minus" viewBox="0 0 384 512">
    <path d="M224 32c0-17.7-14.3-32-32-32s-32 14.3-32 32V144H48c-17.7 0-32 14.3-32 32s14.3 32 32 32H160V320c0 17.7 14.3 32 32 32s32-14.3 32-32V208H336c17.7 0 32-14.3 32-32s-14.3-32-32-32H224V32zM0 480c0 17.7 14.3 32 32 32H352c17.7 0 32-14.3 32-32s-14.3-32-32-32H32c-17.7 0-32 14.3-32 32z"></path>
  </symbol>
  <symbol id="notdef" viewBox="0 0 384 512">
    <path d="M64 390.3L153.5 256 64 121.7V390.3zM102.5 448H281.5L192 313.7 102.5 448zm128-192L320 390.3V121.7L230.5 256zM281.5 64H102.5L192 198.3 281.5 64zM0 48C0 21.5 21.5 0 48 0H336c26.5 0 48 21.5 48 48V464c0 26.5-21.5 48-48 48H48c-26.5 0-48-21.5-48-48V48z"></path>
  </symbol>
</svg>
